<svg xmlns="http://www.w3.org/2000/svg" width="300" height="250" viewBox="0 0 300 250"><rect width="300" height="250" rx="16" fill="#0a0a0a"/><rect x="20" y="70" width="260" height="80" rx="8" fill="#1a1a1a" stroke="#2a2a2a"/><g fill="#e5e7eb"> <rect x="30" y="80" width="20" height="60" rx="3"/> <rect x="60" y="80" width="20" height="60" rx="3"/> <rect x="90" y="80" width="20" height="60" rx="3"/> <rect x="120" y="80" width="20" height="60" rx="3"/> <rect x="150" y="80" width="20" height="60" rx="3"/> <rect x="180" y="80" width="20" height="60" rx="3"/> <rect x="210" y="80" width="20" height="60" rx="3"/> <rect x="240" y="80" width="20" height="60" rx="3"/> </g><g fill="#111827"> <rect x="45" y="80" width="12" height="40" rx="2"/> <rect x="105" y="80" width="12" height="40" rx="2"/> <rect x="165" y="80" width="12" height="40" rx="2"/> <rect x="225" y="80" width="12" height="40" rx="2"/> </g><text x="20" y="40" fill="#cfd6e6" font-size="16" font-family="Arial">Digital Piano</text></svg>