<svg xmlns="http://www.w3.org/2000/svg" viewBox="0 0 600 400" role="img" aria-label="Chord Library">
  <defs>
    <linearGradient id="bglib" x1="0" y1="0" x2="1" y2="1">
      <stop offset="0%" stop-color="#1a1f2e"/>
      <stop offset="100%" stop-color="#232d3e"/>
    </linearGradient>
  </defs>
  <rect width="100%" height="100%" rx="12" fill="url(#bglib)"/>
  <g transform="translate(180,80)">
    <rect x="0" y="0" width="240" height="200" rx="8" fill="#2a3142" stroke="#3a4358" stroke-width="2"/>
    <text x="120" y="35" text-anchor="middle" font-family="Inter,Segoe UI,Arial" font-size="24" font-weight="700" fill="#e1e7f2">C Major</text>
    <g transform="translate(40,60)">
      <line x1="0" y1="0" x2="0" y2="100" stroke="#3a4358" stroke-width="2"/>
      <line x1="40" y1="0" x2="40" y2="100" stroke="#3a4358" stroke-width="2"/>
      <line x1="80" y1="0" x2="80" y2="100" stroke="#3a4358" stroke-width="2"/>
      <line x1="120" y1="0" x2="120" y2="100" stroke="#3a4358" stroke-width="2"/>
      <line x1="160" y1="0" x2="160" y2="100" stroke="#3a4358" stroke-width="2"/>
      <line x1="0" y1="0" x2="160" y2="0" stroke="#3a4358" stroke-width="3"/>
      <line x1="0" y1="25" x2="160" y2="25" stroke="#3a4358" stroke-width="2"/>
      <line x1="0" y1="50" x2="160" y2="50" stroke="#3a4358" stroke-width="2"/>
      <line x1="0" y1="75" x2="160" y2="75" stroke="#3a4358" stroke-width="2"/>
      <line x1="0" y1="100" x2="160" y2="100" stroke="#3a4358" stroke-width="2"/>
      <circle cx="40" cy="50" r="8" fill="#06c167"/>
      <circle cx="80" cy="37.5" r="8" fill="#06c167"/>
      <circle cx="160" cy="25" r="8" fill="#06c167"/>
    </g>
    <text x="120" y="185" text-anchor="middle" font-family="Inter,Segoe UI,Arial" font-size="14" fill="#a9b2c9">C - E - G</text>
  </g>
  <text x="300" y="320" text-anchor="middle" font-family="Inter,Segoe UI,Arial" font-size="20" font-weight="700" fill="#e1e7f2">500+ Chord Diagrams</text>
</svg>