<svg width="400" height="400" xmlns="http://www.w3.org/2000/svg"><rect fill="#1a1a1a" width="400" height="400"/><g transform="translate(100,80)"><path d="M 50 20 Q 50 0 70 0 L 170 0 Q 190 0 190 20 L 190 40 L 50 40 Z" fill="#4a2511"/><rect x="60" y="40" width="120" height="220" rx="15" fill="#654321"/><rect x="65" y="50" width="110" height="200" rx="12" fill="#8b4513"/><circle cx="120" cy="90" r="18" fill="#4a2511"/><circle cx="120" cy="150" r="18" fill="#4a2511"/><line x1="85" y1="60" x2="85" y2="230" stroke="#000" stroke-width="1"/><line x1="95" y1="60" x2="95" y2="230" stroke="#000" stroke-width="1"/><line x1="105" y1="60" x2="105" y2="230" stroke="#000" stroke-width="1"/><line x1="135" y1="60" x2="135" y2="230" stroke="#000" stroke-width="1"/><line x1="145" y1="60" x2="145" y2="230" stroke="#000" stroke-width="1"/><line x1="155" y1="60" x2="155" y2="230" stroke="#000" stroke-width="1"/></g><text x="200" y="350" text-anchor="middle" fill="#06c167" font-size="24" font-weight="bold">Les Paul</text></svg>