<svg width="400" height="400" xmlns="http://www.w3.org/2000/svg"><rect fill="#1a1a1a" width="400" height="400"/><g transform="translate(100,80)"><path d="M 50 20 Q 50 0 70 0 L 170 0 Q 190 0 190 20 L 190 40 L 50 40 Z" fill="#d2691e"/><rect x="60" y="40" width="120" height="200" rx="10" fill="#8b4513"/><rect x="65" y="50" width="110" height="180" rx="8" fill="#a0522d"/><circle cx="120" cy="100" r="15" fill="#d2691e"/><circle cx="120" cy="150" r="15" fill="#d2691e"/><circle cx="120" cy="200" r="15" fill="#d2691e"/><line x1="90" y1="60" x2="90" y2="220" stroke="#000" stroke-width="1"/><line x1="100" y1="60" x2="100" y2="220" stroke="#000" stroke-width="1"/><line x1="110" y1="60" x2="110" y2="220" stroke="#000" stroke-width="1"/><line x1="130" y1="60" x2="130" y2="220" stroke="#000" stroke-width="1"/><line x1="140" y1="60" x2="140" y2="220" stroke="#000" stroke-width="1"/><line x1="150" y1="60" x2="150" y2="220" stroke="#000" stroke-width="1"/></g><text x="200" y="350" text-anchor="middle" fill="#06c167" font-size="24" font-weight="bold">Stratocaster</text></svg>