<?xml version="1.0" encoding="UTF-8"?>
<svg width="512" height="512" viewBox="0 0 512 512" xmlns="http://www.w3.org/2000/svg" role="img" aria-label="FretPilot App Icon">
  <defs>
    <linearGradient id="bgGrad" x1="0" y1="0" x2="1" y2="1">
      <stop offset="0%" stop-color="#0a0a0f"/>
      <stop offset="100%" stop-color="#101626"/>
    </linearGradient>
    <linearGradient id="stringGrad" x1="0" y1="0" x2="1" y2="0">
      <stop offset="0%" stop-color="#00d4ff"/>
      <stop offset="100%" stop-color="#0066ff"/>
    </linearGradient>
    <filter id="glow" x="-20%" y="-20%" width="140%" height="140%">
      <feGaussianBlur stdDeviation="3" result="blur"/>
      <feColorMatrix in="blur" type="matrix" values="0 0 0 0 0  0 0 0 0 0.7  0 0 0 0 1  0 0 0 0.7 0"/>
    </filter>
    <pattern id="circuit" width="40" height="40" patternUnits="userSpaceOnUse" patternTransform="rotate(45)">
      <rect width="40" height="40" fill="none"/>
      <circle cx="20" cy="20" r="2" fill="#113348"/>
      <path d="M20 0v12 M20 28v12 M0 20h12 M28 20h12" stroke="#113348" stroke-width="1" stroke-linecap="round"/>
    </pattern>
    <clipPath id="roundedSquare">
      <rect x="16" y="16" width="480" height="480" rx="110" ry="110"/>
    </clipPath>
  </defs>
  <rect x="16" y="16" width="480" height="480" rx="110" fill="url(#bgGrad)"/>
  <rect x="16" y="16" width="480" height="480" rx="110" fill="url(#circuit)" opacity="0.15"/>
  <!-- Fretboard group -->
  <g clip-path="url(#roundedSquare)">
    <g transform="translate(90 90)">
      <!-- Fretboard base -->
      <rect x="0" y="0" width="332" height="332" rx="32" fill="#121c29" stroke="#1e3147" stroke-width="4"/>
      <!-- Frets -->
      <g stroke="#274057" stroke-width="6" stroke-linecap="round" opacity="0.8">
        <line x1="0" y1="40" x2="332" y2="40"/>
        <line x1="0" y1="90" x2="332" y2="90"/>
        <line x1="0" y1="140" x2="332" y2="140"/>
        <line x1="0" y1="190" x2="332" y2="190"/>
        <line x1="0" y1="240" x2="332" y2="240"/>
        <line x1="0" y1="290" x2="332" y2="290"/>
      </g>
      <!-- Position markers -->
      <g fill="#0b82d5" opacity="0.9">
        <circle cx="166" cy="65" r="10"/>
        <circle cx="83" cy="215" r="10"/>
        <circle cx="249" cy="215" r="10"/>
        <circle cx="166" cy="265" r="10"/>
      </g>
      <!-- Strings -->
      <g stroke="url(#stringGrad)" stroke-width="4" filter="url(#glow)">
        <line x1="20" y1="10" x2="312" y2="10"/>
        <line x1="20" y1="60" x2="312" y2="60"/>
        <line x1="20" y1="110" x2="312" y2="110"/>
        <line x1="20" y1="160" x2="312" y2="160"/>
        <line x1="20" y1="210" x2="312" y2="210"/>
        <line x1="20" y1="260" x2="312" y2="260"/>
      </g>
      <!-- FP Monogram -->
      <g transform="translate(246 246)">
        <rect x="0" y="0" width="86" height="86" rx="18" fill="#0e1622" stroke="#1e3147" stroke-width="3"/>
        <text x="43" y="48" font-family="'Segoe UI', Roboto, Arial" font-size="42" font-weight="700" text-anchor="middle" fill="url(#stringGrad)">FP</text>
      </g>
    </g>
  </g>
  <!-- Outer subtle stroke -->
  <rect x="16" y="16" width="480" height="480" rx="110" fill="none" stroke="#183046" stroke-width="4" opacity="0.6"/>
</svg>